<mxfile host="app.diagrams.net" modified="2020-12-08T13:57:34.831Z" agent="5.0 (Windows NT 10.0; Win64; x64) AppleWebKit/537.36 (KHTML, like Gecko) Chrome/86.0.4240.198 Safari/537.36" etag="3byQmMl-vRhRAwSclHYI" version="13.10.9" type="github">
  <diagram id="kgpKYQtTHZ0yAKxKKP6v" name="Page-1">
    <mxGraphModel dx="1038" dy="580" grid="1" gridSize="10" guides="1" tooltips="1" connect="1" arrows="1" fold="1" page="1" pageScale="1" pageWidth="850" pageHeight="1100" math="0" shadow="0">
      <root>
        <mxCell id="0" />
        <mxCell id="1" parent="0" />
        <mxCell id="eeOZZ3zSu3hW2sfqsnuR-1" value="" style="shape=umlLifeline;participant=umlActor;perimeter=lifelinePerimeter;whiteSpace=wrap;html=1;container=1;collapsible=0;recursiveResize=0;verticalAlign=top;spacingTop=36;outlineConnect=0;" vertex="1" parent="1">
          <mxGeometry x="110" y="40" width="20" height="540" as="geometry" />
        </mxCell>
        <mxCell id="eeOZZ3zSu3hW2sfqsnuR-6" value="" style="html=1;points=[];perimeter=orthogonalPerimeter;" vertex="1" parent="eeOZZ3zSu3hW2sfqsnuR-1">
          <mxGeometry x="5" y="80" width="10" height="430" as="geometry" />
        </mxCell>
        <mxCell id="eeOZZ3zSu3hW2sfqsnuR-2" value="Khách hàng" style="text;align=center;fontStyle=1;verticalAlign=middle;spacingLeft=3;spacingRight=3;strokeColor=none;rotatable=0;points=[[0,0.5],[1,0.5]];portConstraint=eastwest;" vertex="1" parent="1">
          <mxGeometry x="80" y="70" width="80" height="26" as="geometry" />
        </mxCell>
        <mxCell id="eeOZZ3zSu3hW2sfqsnuR-3" value=":GUISystem" style="shape=umlLifeline;perimeter=lifelinePerimeter;whiteSpace=wrap;html=1;container=1;collapsible=0;recursiveResize=0;outlineConnect=0;" vertex="1" parent="1">
          <mxGeometry x="240" y="40" width="100" height="540" as="geometry" />
        </mxCell>
        <mxCell id="eeOZZ3zSu3hW2sfqsnuR-7" value="" style="html=1;points=[];perimeter=orthogonalPerimeter;" vertex="1" parent="eeOZZ3zSu3hW2sfqsnuR-3">
          <mxGeometry x="45" y="80" width="10" height="430" as="geometry" />
        </mxCell>
        <mxCell id="eeOZZ3zSu3hW2sfqsnuR-10" value="Gửi thông tin mặt hàng trong giỏ" style="html=1;verticalAlign=bottom;endArrow=block;" edge="1" parent="eeOZZ3zSu3hW2sfqsnuR-3" target="eeOZZ3zSu3hW2sfqsnuR-4">
          <mxGeometry width="80" relative="1" as="geometry">
            <mxPoint x="60" y="140" as="sourcePoint" />
            <mxPoint x="140" y="140" as="targetPoint" />
          </mxGeometry>
        </mxCell>
        <mxCell id="eeOZZ3zSu3hW2sfqsnuR-16" value="Đưa ra kết quả kiểm tra" style="html=1;verticalAlign=bottom;endArrow=open;dashed=1;endSize=8;" edge="1" parent="eeOZZ3zSu3hW2sfqsnuR-3" source="eeOZZ3zSu3hW2sfqsnuR-4">
          <mxGeometry relative="1" as="geometry">
            <mxPoint x="140" y="280" as="sourcePoint" />
            <mxPoint x="60" y="280" as="targetPoint" />
          </mxGeometry>
        </mxCell>
        <mxCell id="eeOZZ3zSu3hW2sfqsnuR-4" value=":Order" style="shape=umlLifeline;perimeter=lifelinePerimeter;whiteSpace=wrap;html=1;container=1;collapsible=0;recursiveResize=0;outlineConnect=0;" vertex="1" parent="1">
          <mxGeometry x="460" y="40" width="100" height="540" as="geometry" />
        </mxCell>
        <mxCell id="eeOZZ3zSu3hW2sfqsnuR-8" value="" style="html=1;points=[];perimeter=orthogonalPerimeter;" vertex="1" parent="eeOZZ3zSu3hW2sfqsnuR-4">
          <mxGeometry x="45" y="110" width="10" height="400" as="geometry" />
        </mxCell>
        <mxCell id="eeOZZ3zSu3hW2sfqsnuR-12" value="Kiểm tra mặt hàng" style="edgeStyle=orthogonalEdgeStyle;html=1;align=left;spacingLeft=2;endArrow=block;rounded=0;entryX=1;entryY=0;" edge="1" parent="eeOZZ3zSu3hW2sfqsnuR-4">
          <mxGeometry relative="1" as="geometry">
            <mxPoint x="55" y="140" as="sourcePoint" />
            <Array as="points">
              <mxPoint x="100" y="140" />
              <mxPoint x="100" y="160" />
            </Array>
            <mxPoint x="60" y="160" as="targetPoint" />
          </mxGeometry>
        </mxCell>
        <mxCell id="eeOZZ3zSu3hW2sfqsnuR-15" value="Trả về kết quả kiểm tra" style="html=1;verticalAlign=bottom;endArrow=open;dashed=1;endSize=8;" edge="1" parent="eeOZZ3zSu3hW2sfqsnuR-4" source="eeOZZ3zSu3hW2sfqsnuR-5">
          <mxGeometry relative="1" as="geometry">
            <mxPoint x="140" y="270" as="sourcePoint" />
            <mxPoint x="60" y="270" as="targetPoint" />
          </mxGeometry>
        </mxCell>
        <mxCell id="eeOZZ3zSu3hW2sfqsnuR-19" value="Trả về kết quả kiểm tra" style="html=1;verticalAlign=bottom;endArrow=open;dashed=1;endSize=8;" edge="1" parent="eeOZZ3zSu3hW2sfqsnuR-4" source="eeOZZ3zSu3hW2sfqsnuR-5">
          <mxGeometry relative="1" as="geometry">
            <mxPoint x="150" y="340" as="sourcePoint" />
            <mxPoint x="70" y="340" as="targetPoint" />
          </mxGeometry>
        </mxCell>
        <mxCell id="eeOZZ3zSu3hW2sfqsnuR-5" value=":Database" style="shape=umlLifeline;perimeter=lifelinePerimeter;whiteSpace=wrap;html=1;container=1;collapsible=0;recursiveResize=0;outlineConnect=0;" vertex="1" parent="1">
          <mxGeometry x="660" y="40" width="100" height="540" as="geometry" />
        </mxCell>
        <mxCell id="eeOZZ3zSu3hW2sfqsnuR-14" value="" style="html=1;points=[];perimeter=orthogonalPerimeter;" vertex="1" parent="eeOZZ3zSu3hW2sfqsnuR-5">
          <mxGeometry x="45" y="160" width="10" height="250" as="geometry" />
        </mxCell>
        <mxCell id="eeOZZ3zSu3hW2sfqsnuR-9" value="Gửi yêu cầu đặt hàng" style="html=1;verticalAlign=bottom;endArrow=block;" edge="1" parent="1" target="eeOZZ3zSu3hW2sfqsnuR-3">
          <mxGeometry width="80" relative="1" as="geometry">
            <mxPoint x="130" y="160" as="sourcePoint" />
            <mxPoint x="210" y="160" as="targetPoint" />
          </mxGeometry>
        </mxCell>
        <mxCell id="eeOZZ3zSu3hW2sfqsnuR-13" value="Thêm đơn hàng" style="html=1;verticalAlign=bottom;endArrow=block;entryX=-0.46;entryY=0.246;entryDx=0;entryDy=0;entryPerimeter=0;" edge="1" parent="1" source="eeOZZ3zSu3hW2sfqsnuR-4" target="eeOZZ3zSu3hW2sfqsnuR-14">
          <mxGeometry width="80" relative="1" as="geometry">
            <mxPoint x="530" y="260" as="sourcePoint" />
            <mxPoint x="610" y="260" as="targetPoint" />
          </mxGeometry>
        </mxCell>
        <mxCell id="eeOZZ3zSu3hW2sfqsnuR-17" value="Thông báo đặt hàng thành công" style="html=1;verticalAlign=bottom;endArrow=open;dashed=1;endSize=8;" edge="1" parent="1" source="eeOZZ3zSu3hW2sfqsnuR-3">
          <mxGeometry relative="1" as="geometry">
            <mxPoint x="210" y="330" as="sourcePoint" />
            <mxPoint x="130" y="330" as="targetPoint" />
          </mxGeometry>
        </mxCell>
        <mxCell id="eeOZZ3zSu3hW2sfqsnuR-18" value="[ if mặt hàng còn]" style="text;align=center;fontStyle=1;verticalAlign=middle;spacingLeft=3;spacingRight=3;strokeColor=none;rotatable=0;points=[[0,0.5],[1,0.5]];portConstraint=eastwest;" vertex="1" parent="1">
          <mxGeometry x="20" y="297" width="80" height="26" as="geometry" />
        </mxCell>
        <mxCell id="eeOZZ3zSu3hW2sfqsnuR-20" value="Thông báo hết mặt hàng" style="html=1;verticalAlign=bottom;endArrow=open;dashed=1;endSize=8;" edge="1" parent="1" source="eeOZZ3zSu3hW2sfqsnuR-4">
          <mxGeometry x="-0.1594" relative="1" as="geometry">
            <mxPoint x="210" y="410" as="sourcePoint" />
            <mxPoint x="130" y="410" as="targetPoint" />
            <mxPoint x="1" as="offset" />
          </mxGeometry>
        </mxCell>
        <mxCell id="eeOZZ3zSu3hW2sfqsnuR-21" value="[else]" style="text;align=center;fontStyle=1;verticalAlign=middle;spacingLeft=3;spacingRight=3;strokeColor=none;rotatable=0;points=[[0,0.5],[1,0.5]];portConstraint=eastwest;" vertex="1" parent="1">
          <mxGeometry x="20" y="370" width="80" height="26" as="geometry" />
        </mxCell>
      </root>
    </mxGraphModel>
  </diagram>
</mxfile>
